<?xml version="1.0" encoding="UTF-8" standalone="no"?><!DOCTYPE svg PUBLIC "-//W3C//DTD SVG 1.1//EN" "http://www.w3.org/Graphics/SVG/1.1/DTD/svg11.dtd"><svg width="100%" height="100%" viewBox="0 0 201 201" version="1.1" xmlns="http://www.w3.org/2000/svg" xmlns:xlink="http://www.w3.org/1999/xlink" xml:space="preserve" xmlns:serif="http://www.serif.com/" style="fill-rule:evenodd;clip-rule:evenodd;stroke-linecap:round;stroke-linejoin:round;stroke-miterlimit:1.5;"><rect id="disable_ring" x="0.476" y="0.752" width="200" height="200" style="fill:none;"/><g><path d="M70.196,32.095C70.862,31.547 71.595,31.244 72.364,31.244L83.403,31.244C86.449,31.244 88.923,35.991 88.923,41.837L88.923,166.073C88.923,171.92 86.449,176.666 83.403,176.666L72.364,176.666C71.923,176.666 71.493,176.566 71.082,176.378C69.109,177.3 66.948,175.989 65.632,172.704L53.161,141.581L22.229,141.581C17.152,141.581 13.03,133.671 13.03,123.927L13.03,88.619C13.03,78.876 17.152,70.966 22.229,70.966L51.635,70.966L65.632,36.032C66.753,33.234 68.487,31.868 70.196,32.095Z"/><path d="M108.449,31.244C125.007,31.244 138.449,63.825 138.449,103.955C138.449,144.085 125.007,176.666 108.449,176.666C113.417,159.7 117.449,132.96 117.449,103.955C117.449,74.95 113.417,48.21 108.449,31.244Z"/><path d="M153.396,14.192C172.452,14.192 187.923,52.978 187.923,100.752C187.923,148.527 172.452,187.313 153.396,187.313C159.113,167.116 163.754,135.282 163.754,100.752C163.754,66.223 159.113,34.389 153.396,14.192Z"/></g><path d="M104.512,90.233L174.474,20.271C176.168,18.576 178.92,18.576 180.614,20.271L186.753,26.41C188.448,28.105 188.448,30.856 186.753,32.55L116.791,102.512L186.753,172.474C188.448,174.168 188.448,176.92 186.753,178.614L180.614,184.753C178.92,186.448 176.168,186.448 174.474,184.753L104.512,114.791L34.55,184.753C32.856,186.448 30.105,186.448 28.41,184.753L22.271,178.614C20.576,176.92 20.576,174.168 22.271,172.474L92.233,102.512L22.271,32.55C20.576,30.856 20.576,28.105 22.271,26.41L28.41,20.271C30.105,18.576 32.856,18.576 34.55,20.271L104.512,90.233Z" style="stroke:#fff;stroke-width:3.11px;"/></svg>