<?xml version="1.0" encoding="UTF-8" standalone="no"?><!DOCTYPE svg PUBLIC "-//W3C//DTD SVG 1.1//EN" "http://www.w3.org/Graphics/SVG/1.1/DTD/svg11.dtd"><svg width="100%" height="100%" viewBox="0 0 201 201" version="1.1" xmlns="http://www.w3.org/2000/svg" xmlns:xlink="http://www.w3.org/1999/xlink" xml:space="preserve" xmlns:serif="http://www.serif.com/" style="fill-rule:evenodd;clip-rule:evenodd;stroke-linejoin:round;stroke-miterlimit:2;"><rect id="enable_ring" x="0.107" y="0.752" width="200" height="200" style="fill:none;"/><g><path d="M69.827,32.095C70.493,31.547 71.226,31.244 71.995,31.244L83.034,31.244C86.08,31.244 88.554,35.991 88.554,41.837L88.554,166.073C88.554,171.92 86.08,176.666 83.034,176.666L71.995,176.666C71.554,176.666 71.124,176.566 70.713,176.378C68.74,177.3 66.579,175.989 65.263,172.704L52.792,141.581L21.86,141.581C16.783,141.581 12.661,133.671 12.661,123.927L12.661,88.619C12.661,78.876 16.783,70.966 21.86,70.966L51.266,70.966L65.263,36.032C66.384,33.234 68.118,31.868 69.827,32.095Z"/><path d="M108.08,31.244C124.638,31.244 138.08,63.825 138.08,103.955C138.08,144.085 124.638,176.666 108.08,176.666C113.048,159.7 117.08,132.96 117.08,103.955C117.08,74.95 113.048,48.21 108.08,31.244Z"/><path d="M153.027,14.192C172.083,14.192 187.554,52.978 187.554,100.752C187.554,148.527 172.083,187.313 153.027,187.313C158.744,167.116 163.385,135.282 163.385,100.752C163.385,66.223 158.744,34.389 153.027,14.192Z"/></g></svg>