<?xml version="1.0" encoding="UTF-8" standalone="no"?><!DOCTYPE svg PUBLIC "-//W3C//DTD SVG 1.1//EN" "http://www.w3.org/Graphics/SVG/1.1/DTD/svg11.dtd"><svg width="100%" height="100%" viewBox="0 0 201 201" version="1.1" xmlns="http://www.w3.org/2000/svg" xmlns:xlink="http://www.w3.org/1999/xlink" xml:space="preserve" xmlns:serif="http://www.serif.com/" style="fill-rule:evenodd;clip-rule:evenodd;stroke-linecap:round;stroke-linejoin:round;stroke-miterlimit:1.5;"><rect id="Pin" x="0.476" y="0.376" width="200" height="200" style="fill:none;"/><clipPath id="_clip1"><rect x="0.476" y="0.376" width="200" height="200"/></clipPath><g clip-path="url(#_clip1)"><g><path d="M171.55,41.824L119.139,3.797L68.849,73.112L121.26,111.138L171.55,41.824Z" style="stroke:#fff;stroke-width:2.24px;"/><path d="M91.15,15.376C91.466,14.883 91.796,14.399 92.142,13.922C104.5,-3.11 132.043,-4.232 153.611,11.416C175.18,27.065 182.658,53.597 170.301,70.629C169.955,71.106 169.597,71.57 169.227,72.023L91.15,15.376Z" style="stroke:#fff;stroke-width:3.94px;"/><path d="M141.022,110.983L62.864,54.276L46.33,77.064L124.489,133.771L141.022,110.983Z" style="stroke:#fff;stroke-width:3px;"/><path d="M24.369,194.924L69.987,94.228L101.264,116.012L24.369,194.924Z"/></g><path d="M96.542,81.233L166.504,11.271C168.198,9.576 170.949,9.576 172.643,11.271L178.783,17.41C180.477,19.105 180.477,21.856 178.783,23.55L108.821,93.512L178.783,163.474C180.477,165.168 180.477,167.92 178.783,169.614L172.643,175.753C170.949,177.448 168.198,177.448 166.504,175.753L96.542,105.791L26.58,175.753C24.885,177.448 22.134,177.448 20.44,175.753L14.3,169.614C12.606,167.92 12.606,165.168 14.3,163.474L84.262,93.512L14.3,23.55C12.606,21.856 12.606,19.105 14.3,17.41L20.44,11.271C22.134,9.576 24.885,9.576 26.58,11.271L96.542,81.233Z" style="stroke:#fff;stroke-width:3.11px;"/></g></svg>