<?xml version="1.0" encoding="UTF-8" standalone="no"?><!DOCTYPE svg PUBLIC "-//W3C//DTD SVG 1.1//EN" "http://www.w3.org/Graphics/SVG/1.1/DTD/svg11.dtd"><svg width="100%" height="100%" viewBox="0 0 201 201" version="1.1" xmlns="http://www.w3.org/2000/svg" xmlns:xlink="http://www.w3.org/1999/xlink" xml:space="preserve" xmlns:serif="http://www.serif.com/" style="fill-rule:evenodd;clip-rule:evenodd;stroke-linecap:round;stroke-linejoin:round;stroke-miterlimit:1.5;"><rect id="Pin" x="0.107" y="0.376" width="200" height="200" style="fill:none;"/><clipPath id="_clip1"><rect x="0.107" y="0.376" width="200" height="200"/></clipPath><g clip-path="url(#_clip1)"><g><path d="M171.181,41.824L118.77,3.797L68.48,73.112L120.89,111.138L171.181,41.824Z" style="stroke:#fff;stroke-width:2.24px;"/><path d="M90.781,15.376C91.097,14.883 91.427,14.399 91.773,13.922C104.131,-3.11 131.674,-4.232 153.242,11.416C174.811,27.065 182.289,53.597 169.932,70.629C169.586,71.106 169.228,71.57 168.858,72.023L90.781,15.376Z" style="stroke:#fff;stroke-width:3.94px;"/><path d="M140.653,110.983L62.495,54.276L45.961,77.064L124.12,133.771L140.653,110.983Z" style="stroke:#fff;stroke-width:3px;"/><path d="M24,194.924L69.618,94.228L100.895,116.012L24,194.924Z"/></g></g></svg>