<?xml version="1.0" encoding="UTF-8" standalone="no"?><!DOCTYPE svg PUBLIC "-//W3C//DTD SVG 1.1//EN" "http://www.w3.org/Graphics/SVG/1.1/DTD/svg11.dtd"><svg width="100%" height="100%" viewBox="0 0 201 201" version="1.1" xmlns="http://www.w3.org/2000/svg" xmlns:xlink="http://www.w3.org/1999/xlink" xml:space="preserve" xmlns:serif="http://www.serif.com/" style="fill-rule:evenodd;clip-rule:evenodd;stroke-linejoin:round;stroke-miterlimit:2;"><rect id="Artboard1" x="0.476" y="0.376" width="200" height="200" style="fill:none;"/><path d="M170.344,117.349C168.574,124.652 165.687,131.522 161.871,137.768L172.371,148.268C175.683,151.58 175.683,156.957 172.371,160.269L160.369,172.271C157.057,175.583 151.679,175.583 148.367,172.271L137.868,161.771C131.624,165.585 124.754,168.473 117.449,170.244L117.449,185.078C117.443,186.038 117.289,186.99 116.969,187.897C116.134,190.265 114.237,192.185 111.879,193.049C110.978,193.379 110.03,193.545 109.072,193.564L91.99,193.564C91.029,193.558 90.077,193.404 89.171,193.084C86.769,192.237 84.83,190.299 83.983,187.897C83.664,186.99 83.509,186.038 83.503,185.078L83.503,170.244C76.2,168.474 69.331,165.587 63.084,161.771L52.585,172.271C49.273,175.583 43.895,175.583 40.583,172.271L28.581,160.269C25.269,156.957 25.269,151.58 28.581,148.268L39.081,137.768C35.267,131.524 32.38,124.654 30.609,117.349L15.775,117.349C11.091,117.349 7.288,113.547 7.288,108.863L7.288,91.89C7.288,87.206 11.091,83.403 15.775,83.403L30.609,83.403C32.379,76.1 35.266,69.231 39.081,62.985L28.581,52.485C25.269,49.173 25.269,43.795 28.581,40.483L40.583,28.481C43.895,25.169 49.273,25.169 52.585,28.481L63.084,38.981C69.328,35.168 76.198,32.28 83.503,30.509L83.503,15.675C83.509,14.714 83.664,13.762 83.983,12.856C84.818,10.487 86.715,8.567 89.073,7.703C89.974,7.373 90.922,7.207 91.88,7.189L91.99,7.188L108.963,7.188L109.072,7.189C110.03,7.207 110.978,7.373 111.879,7.703C114.237,8.567 116.134,10.487 116.969,12.856C117.289,13.762 117.443,14.714 117.449,15.675L117.449,30.509C124.752,32.279 131.621,35.166 137.868,38.981L148.367,28.481C151.679,25.169 157.057,25.169 160.369,28.481L172.371,40.483C175.683,43.795 175.683,49.173 172.371,52.485L161.871,62.985C165.685,69.228 168.573,76.098 170.344,83.403L185.178,83.403C189.862,83.403 193.664,87.206 193.664,91.89L193.664,108.863C193.664,113.547 189.862,117.349 185.178,117.349L170.344,117.349ZM100.476,53.139C126.547,53.139 147.713,74.305 147.713,100.376C147.713,126.447 126.547,147.613 100.476,147.613C74.405,147.613 53.239,126.447 53.239,100.376C53.239,74.305 74.405,53.139 100.476,53.139Z"/></svg>