<?xml version="1.0" encoding="UTF-8" standalone="no"?><!DOCTYPE svg PUBLIC "-//W3C//DTD SVG 1.1//EN" "http://www.w3.org/Graphics/SVG/1.1/DTD/svg11.dtd"><svg width="100%" height="100%" viewBox="0 0 201 200" version="1.1" xmlns="http://www.w3.org/2000/svg" xmlns:xlink="http://www.w3.org/1999/xlink" xml:space="preserve" xmlns:serif="http://www.serif.com/" style="fill-rule:evenodd;clip-rule:evenodd;stroke-linejoin:round;stroke-miterlimit:2;"><rect id="Artboard1" x="0.476" y="0" width="200" height="200" style="fill:none;"/><path d="M70.624,142.916L70.585,166.581C37.392,154.773 13.715,123.891 13.774,87.732C13.85,41.463 52.761,3.961 100.613,4.039C148.465,4.117 187.253,41.745 187.178,88.015C187.12,123.23 164.567,153.367 132.691,165.723L132.642,195.961C114.202,182.316 95.762,168.671 77.322,155.026L132.775,114.272L132.73,141.637C151.844,130.885 164.716,110.88 164.753,87.978C164.809,53.676 136.053,25.78 100.577,25.722C65.102,25.664 36.255,53.466 36.199,87.769C36.16,111.687 50.13,132.491 70.624,142.916Z"/></svg>