<?xml version="1.0" encoding="UTF-8" standalone="no"?><!DOCTYPE svg PUBLIC "-//W3C//DTD SVG 1.1//EN" "http://www.w3.org/Graphics/SVG/1.1/DTD/svg11.dtd"><svg width="100%" height="100%" viewBox="0 0 200 200" version="1.1" xmlns="http://www.w3.org/2000/svg" xmlns:xlink="http://www.w3.org/1999/xlink" xml:space="preserve" xmlns:serif="http://www.serif.com/" style="fill-rule:evenodd;clip-rule:evenodd;stroke-linejoin:round;stroke-miterlimit:2;"><rect id="set" x="0" y="0" width="200" height="200" style="fill:none;"/><path d="M32.962,193C28.868,193 25.14,191.774 21.777,189.321C18.414,186.869 15.527,183.401 13.114,178.919C10.702,174.437 8.801,168.982 7.412,162.555C6.023,156.127 5.219,148.939 5,140.989L21.448,140.989C22.033,153.675 25.981,160.018 33.291,160.018C36.946,160.018 39.724,158.199 41.625,154.563C43.525,150.926 44.476,146.063 44.476,139.974C44.476,134.562 43.726,129.91 42.228,126.02C40.729,122.13 38.664,119.508 36.032,118.155L27.699,113.842C20.534,110.121 15.107,103.482 11.415,93.926C7.723,84.369 5.877,72.149 5.877,57.265C5.877,49.484 6.517,42.38 7.796,35.953C9.075,29.525 10.885,24.028 13.224,19.462C15.563,14.895 18.396,11.343 21.722,8.806C25.049,6.269 28.795,5 32.962,5C40.784,5 47.053,9.482 51.768,18.447C56.483,27.411 59.096,39.843 59.608,55.742L43.16,55.742C42.867,50.161 41.789,45.805 39.925,42.676C38.061,39.547 35.594,37.982 32.523,37.982C29.307,37.982 26.803,39.758 25.012,43.31C23.221,46.862 22.325,51.345 22.325,56.757C22.325,61.493 23.02,65.595 24.409,69.062C25.798,72.529 27.808,74.94 30.44,76.293L39.212,80.86C46.303,84.581 51.695,91.304 55.386,101.03C59.078,110.755 60.924,123.145 60.924,138.198C60.924,146.317 60.266,153.717 58.95,160.398C57.634,167.079 55.752,172.83 53.303,177.65C50.854,182.471 47.912,186.234 44.476,188.941C41.04,191.647 37.202,193 32.962,193Z" style="fill-rule:nonzero;"/><path d="M74.631,190.463L74.631,7.791L124.524,7.791L124.524,40.773L91.079,40.773L91.079,80.352L120.686,80.352L120.686,113.335L91.079,113.335L91.079,157.48L124.524,157.48L124.524,190.463L74.631,190.463Z" style="fill-rule:nonzero;"/><path d="M135.489,7.791L193.606,7.791L193.606,43.31L172.772,43.31L172.772,190.463L156.323,190.463L156.323,43.31L135.489,43.31L135.489,7.791Z" style="fill-rule:nonzero;"/></svg>